<svg width="256" height="101" viewBox="0 0 256 101" fill="none" xmlns="http://www.w3.org/2000/svg">
<g clip-path="url(#clip0_995_5931)">
<path d="M146.491 32.7254C150.762 32.7254 154.227 29.2505 154.227 24.9414C154.227 20.6323 150.762 17.0968 146.491 17.0968C142.219 17.0968 138.711 20.5804 138.711 24.9414C138.711 29.3024 142.185 32.7254 146.491 32.7254Z" fill="#231F20"/>
<path d="M159.038 24.9414C159.038 29.2505 162.559 32.7254 166.848 32.7254C171.136 32.7254 174.602 29.2505 174.602 24.9414C174.602 20.6323 171.128 17.0968 166.848 17.0968C162.568 17.0968 159.038 20.5804 159.038 24.9414Z" fill="#231F20"/>
<path d="M156.43 16.4787C160.701 16.4787 164.21 13.0211 164.21 8.67739C164.21 4.33369 160.701 0.91925 156.43 0.91925C152.159 0.91925 148.62 4.42014 148.62 8.67739C148.62 12.9346 152.141 16.4787 156.43 16.4787Z" fill="#231F20"/>
<path d="M67.1096 32.7254C71.3595 32.7254 74.8637 29.2505 74.8637 24.9414C74.8637 20.6323 71.3595 17.0968 67.1096 17.0968C62.8597 17.0968 59.3599 20.5804 59.3599 24.9414C59.3599 29.3024 62.8037 32.7254 67.1096 32.7254Z" fill="#231F20"/>
<path d="M47.619 32.7254C51.8689 32.7254 55.3774 29.2505 55.3774 24.9414C55.3774 20.6323 51.8646 17.0968 47.619 17.0968C43.3735 17.0968 39.8132 20.5804 39.8132 24.9414C39.8132 29.3024 43.3045 32.7254 47.619 32.7254Z" fill="#231F20"/>
<path d="M240.22 3.85826V81.9453H244.069C250.638 81.9453 256.004 76.6162 256.004 70.0336V1.07916L240.225 3.85826H240.22Z" fill="#231F20"/>
<path d="M75.4758 61.9514V37.8514H64.3426C44.645 37.8514 30.723 43.535 30.723 60.1966C30.723 69.0914 36.6711 75.4276 49.9293 75.4276C53.7567 75.4276 56.8687 75.0775 59.597 74.1656C58.929 89.7423 46.1104 95.0283 38.3348 95.0283C29.6024 95.0283 16.9605 86.9287 16.9605 66.2518V47.6064L1.05591 50.4719V66.2562C1.05591 82.6023 16.077 99.7782 38.3348 99.7782C77.5706 99.7782 75.4758 68.2184 75.4758 61.96V61.9514ZM59.597 58.0831C59.597 65.3399 56.5066 71.8489 52.3387 72.0391C48.4983 71.8489 46.5113 65.3399 46.5113 59.9416C46.5113 47.6021 52.843 42.2427 59.597 41.2832V58.0831Z" fill="#231F20"/>
<path d="M217.609 57.8021C217.609 64.2507 217.609 68.1708 212.876 68.1708H194.829V41.979L179.084 44.9007V68.1708H166.516V45.8213L150.753 48.6566V68.1708H138.331V49.5643L122.509 52.339C122.582 54.9842 122.582 68.1708 122.582 68.1708H99.2982C99.6775 62.738 99.768 61.0869 99.768 55.1959V41.979L83.997 44.9007V58.6406C83.997 88.2253 76.6481 97.2844 62.2175 100.621H62.9459C66.7648 100.924 69.9069 101.014 71.3336 101.014C86.5917 101.014 94.4837 92.7202 97.3974 81.9496L126.366 81.9799C132.926 81.9799 138.245 76.6205 138.245 70.038L138.336 81.9496L154.525 81.9799C161.098 81.9799 166.421 76.6205 166.421 70.038L166.404 81.9496L182.968 81.9799C189.537 81.9799 194.829 76.6205 194.829 70.038V70.012C194.829 76.6248 200.191 81.9064 206.76 81.9064L215.092 81.9496C226.018 81.9496 233.483 77.3941 233.483 68.9358V1.07916L217.609 3.85826V57.8021Z" fill="#231F20"/>
<path d="M145.418 31.7573C149.71 31.7573 153.215 28.2737 153.215 23.9603C153.215 19.6468 149.71 16.1719 145.418 16.1719C141.125 16.1719 137.633 19.6598 137.633 23.9603C137.633 28.2607 141.116 31.7573 145.418 31.7573Z" fill="#0095DA"/>
<path d="M157.973 23.9603C157.973 28.2737 161.447 31.7573 165.775 31.7573C170.102 31.7573 173.542 28.2737 173.542 23.9603C173.542 19.6468 170.059 16.1719 165.775 16.1719C161.49 16.1719 157.973 19.6598 157.973 23.9603Z" fill="#0095DA"/>
<path d="M66.0236 31.7573C70.3381 31.7573 73.838 28.2737 73.838 23.9603C73.838 19.6468 70.3381 16.1719 66.0236 16.1719C61.7091 16.1719 58.2566 19.6598 58.2566 23.9603C58.2566 28.2607 61.7306 31.7573 66.0236 31.7573Z" fill="#0095DA"/>
<path d="M155.374 15.5668C159.663 15.5668 163.154 12.1221 163.154 7.82592C163.154 3.52977 159.663 -0.0100098 155.374 -0.0100098C151.085 -0.0100098 147.59 3.47791 147.59 7.82592C147.59 12.1739 151.06 15.5668 155.374 15.5668Z" fill="#0095DA"/>
<path d="M239.117 2.93764V81.0074H243.005C249.578 81.0074 254.892 75.7042 254.892 69.1217V0.089386L239.121 2.93764H239.117Z" fill="#0095DA"/>
<path d="M46.5373 31.7573C50.8475 31.7573 54.3388 28.2737 54.3388 23.9603C54.3388 19.6468 50.8475 16.1719 46.5373 16.1719C42.2271 16.1719 38.7617 19.6598 38.7617 23.9603C38.7617 28.2607 42.2357 31.7573 46.5373 31.7573Z" fill="#0095DA"/>
<path d="M74.4199 61.0221V36.9135H63.3168C43.5761 36.9135 29.6714 42.6316 29.6714 59.2846C29.6714 68.1103 35.6152 74.4854 48.8734 74.4854C52.7094 74.4854 55.8257 74.1655 58.5153 73.2363C57.8299 88.826 45.0459 94.1119 37.266 94.1119C28.5292 94.1119 15.8702 86.0253 15.8702 65.3139V46.6425L0 49.4778V65.3182C0 81.6687 15.0167 98.823 37.2574 98.823C76.5621 98.823 74.4156 67.2805 74.4156 61.0221H74.4199ZM58.5325 57.1452C58.5325 64.4279 55.4119 70.8937 51.2397 71.1012C47.4208 70.8937 45.4467 64.4279 45.4467 58.9864C45.4467 46.6339 51.8 41.335 58.5325 40.3712V57.1409V57.1452Z" fill="#0095DA"/>
<path d="M216.54 56.8686C216.54 63.3214 216.54 67.2329 211.859 67.2329H193.795V41.0497L178.016 43.9628V67.2329H165.481V44.9007L149.685 47.7101V67.2329H137.228V48.6566L121.457 51.4098C121.573 54.0549 121.573 67.2329 121.573 67.2329H98.238C98.5914 61.8649 98.7251 60.1101 98.7251 54.2883V41.0497L82.9584 43.9628V57.6941C82.9584 87.296 75.5534 96.3724 61.1143 99.6658H61.8685C65.7176 99.9424 68.8123 100.055 70.2519 100.055C85.5143 100.055 93.4235 91.791 96.307 81.0463H125.259C131.84 81.0463 137.176 75.7042 137.176 69.1217L137.271 81.0463H153.452C160.007 81.0463 165.387 75.7042 165.387 69.1217L165.335 81.0463H181.89C188.476 81.0463 193.787 75.7042 193.787 69.1217V69.0871C193.787 75.6999 199.097 80.9728 205.674 80.9728L214.049 81.0463C224.915 81.0463 232.397 76.4346 232.397 68.0325V0.089386L216.536 2.93764V56.8686H216.54Z" fill="#0095DA"/>
<path d="M232.789 23.9041L236.289 27.4827V42.9428L230.613 28.5633L232.789 23.9041Z" fill="white"/>
<path d="M236.156 42.9947L230.458 28.5589L232.742 23.662L236.427 27.4309V42.9471L236.152 42.999L236.156 42.9947ZM230.768 28.5676L236.143 42.1908V27.5432L232.828 24.1547L230.768 28.5676Z" fill="#ED1C24"/>
<path d="M225.742 26.6227L230.367 28.6065L236.255 42.891L225.557 31.7702L225.742 26.6227Z" fill="white"/>
<path d="M236.027 43.1071L225.234 31.8913L225.445 26.1516L230.604 28.3645L230.652 28.4855L236.544 42.77L236.027 43.1114V43.1071ZM225.876 31.6449L235.328 41.4733L230.122 28.8442L226.04 27.0938L225.872 31.6449H225.876Z" fill="#ED1C24"/>
<path d="M220.32 31.861L225.337 31.9604L236.216 42.891L222.061 36.6801L220.32 31.861Z" fill="white"/>
<path d="M236.091 43.1805L221.816 36.9135L219.872 31.5325L225.475 31.6449L236.44 42.6662L236.091 43.1805ZM222.311 36.4424L234.815 41.9315L225.204 32.2759L220.768 32.1852L222.307 36.4424H222.311Z" fill="#ED1C24"/>
<path d="M217.299 38.7807L221.962 36.9697L236.186 42.891L220.76 42.5755L217.299 38.7807Z" fill="white"/>
<path d="M236.182 43.2065L220.622 42.891L216.756 38.6553L221.967 36.6326L236.311 42.6014L236.186 43.2108L236.182 43.2065ZM220.902 42.2643L234.522 42.5409L221.954 37.3112L217.837 38.906L220.898 42.26L220.902 42.2643Z" fill="#ED1C24"/>
<path d="M235.996 43.1114L230.294 28.5503L232.699 23.3768L236.6 27.4093V42.9947L235.992 43.1114H235.996ZM230.979 28.5719L235.975 41.3264V27.6643L232.889 24.4746L230.984 28.5719H230.979Z" fill="#ED1C24"/>
<path d="M239.712 23.9041L236.186 27.4827L236.216 42.9428L241.867 28.5633L239.712 23.9041Z" fill="white"/>
<path d="M236.35 42.9947L236.074 42.9428L236.048 27.4265L239.755 23.662L242.022 28.5589L242 28.6151L236.35 42.9947ZM236.328 27.5432L236.354 42.1908L241.707 28.5676L239.664 24.1547L236.328 27.5432Z" fill="#ED1C24"/>
<path d="M246.703 26.6227L242.112 28.6065L236.255 42.891L246.953 31.7702L246.703 26.6227Z" fill="white"/>
<path d="M236.483 43.1071L235.966 42.7656L241.875 28.3645L247 26.1516L247.28 31.887L247.186 31.9864L236.488 43.1071H236.483ZM242.358 28.8442L237.177 41.4776L246.634 31.6449L246.414 27.0894L242.358 28.8399V28.8442Z" fill="#ED1C24"/>
<path d="M252.172 31.861L247.147 31.9604L236.255 42.891L250.448 36.6801L252.172 31.861Z" fill="white"/>
<path d="M236.38 43.1805L236.031 42.6662L247.013 31.6449L252.625 31.5325L250.698 36.9135L236.38 43.1805ZM247.28 32.2716L237.656 41.9315L250.198 36.4424L251.724 32.1852L247.28 32.2759V32.2716Z" fill="#ED1C24"/>
<path d="M255.207 38.7807L250.53 36.9697L236.29 42.891L251.733 42.5755L255.207 38.7807Z" fill="white"/>
<path d="M236.294 43.2065L236.169 42.5971L250.526 36.6283L255.75 38.651L251.875 42.8866H251.741L236.298 43.2022L236.294 43.2065ZM250.535 37.3112L237.953 42.5409L251.595 42.2643L254.664 38.9103L250.535 37.3155V37.3112Z" fill="#ED1C24"/>
<path d="M239.664 23.93L236.186 27.5389V42.999L241.867 28.5633L239.664 23.93Z" fill="white"/>
<path d="M236.479 43.1114L235.871 42.9947V27.4093L239.755 23.3768L242.212 28.546L242.16 28.6756L236.479 43.1114ZM236.501 27.6686V41.335L241.522 28.5719L239.574 24.4746L236.501 27.6686Z" fill="#ED1C24"/>
<path d="M236.255 42.9169H251.634L253.181 44.3864H219.199L220.76 42.9169H236.16" fill="white"/>
<path d="M253.974 44.7019H218.402L220.639 42.6014H236.16V43.2324H220.885L219.997 44.0709H252.388L251.509 43.2324H236.255V42.6014H251.759L253.974 44.7019Z" fill="#ED1C24"/>
<path d="M236.289 48.6134C226.854 43.4139 219.402 50.5972 219.402 50.5972C219.402 50.5972 232.389 45.3632 236.255 51.211C236.255 51.211 236.255 51.306 236.289 51.2715C236.289 51.306 236.32 51.211 236.32 51.211C240.169 45.3632 253.185 50.5972 253.185 50.5972C253.185 50.5972 245.716 43.4139 236.294 48.6134" fill="#ED1C27"/>
<path d="M236.324 51.44L236.147 51.4011V51.3493C236.13 51.3277 236.121 51.2974 236.117 51.2585C232.328 45.6225 219.583 50.6793 219.454 50.7312L219.303 50.4978C219.376 50.4243 226.902 43.3361 236.289 48.4535C245.664 43.3318 253.207 50.4243 253.28 50.4978L253.129 50.7355C253 50.6837 240.203 45.6225 236.449 51.2758C236.436 51.319 236.41 51.3838 236.358 51.4098L236.328 51.4443L236.324 51.44ZM229.587 48.2806C232.281 48.2806 234.837 48.9462 236.285 51.0035C239.729 46.0806 249.561 49.1364 252.448 50.1693C250.457 48.622 244.026 44.5074 236.358 48.7387L236.289 48.7776L236.221 48.7387C228.544 44.5074 222.122 48.622 220.135 50.1693C221.812 49.5686 225.837 48.2806 229.591 48.2806H229.587Z" fill="#ED1C24"/>
<path d="M219.484 49.3093C219.385 49.3093 219.286 49.2617 219.225 49.171C219.126 49.0283 219.161 48.8295 219.307 48.7301C219.393 48.6696 228.057 42.7872 236.294 47.0402C237.5 46.4653 245.651 42.9515 253.871 48.6307C254.013 48.7301 254.052 48.9246 253.953 49.0715C253.853 49.2185 253.659 49.2531 253.513 49.1537C244.979 43.254 236.522 47.6323 236.436 47.6798C236.345 47.7274 236.233 47.7274 236.143 47.6798C228.195 43.4615 219.751 49.1969 219.665 49.2574C219.609 49.2963 219.549 49.3136 219.488 49.3136L219.484 49.3093Z" fill="#FFDE2F"/>
<path d="M239.289 42.891C239.289 44.542 237.949 45.8775 236.255 45.8775C234.561 45.8775 233.229 44.542 233.229 42.891C233.229 41.2399 234.591 39.8525 236.255 39.8525C237.919 39.8525 239.289 41.1967 239.289 42.891Z" fill="#FFDE2F"/>
</g>
<defs>
<clipPath id="clip0_995_5931">
<rect width="256" height="101.02" fill="white" transform="translate(0 -0.0100098)"/>
</clipPath>
</defs>
</svg>
